Coordinates
version=1
nRows=17
nColumns=40
inDegrees=yes

Units are S.I. units (second, meters, Newtons, ...)
Angles are in degrees.

endheader
time	pelvis_tilt	pelvis_list	pelvis_rotation	pelvis_tx	pelvis_ty	pelvis_tz	hip_flexion_r	hip_adduction_r	hip_rotation_r	knee_angle_r	knee_angle_r_beta	ankle_angle_r	subtalar_angle_r	mtp_angle_r	hip_flexion_l	hip_adduction_l	hip_rotation_l	knee_angle_l	knee_angle_l_beta	ankle_angle_l	subtalar_angle_l	mtp_angle_l	lumbar_extension	lumbar_bending	lumbar_rotation	arm_flex_r	arm_add_r	arm_rot_r	elbow_flex_r	pro_sup_r	wrist_flex_r	wrist_dev_r	arm_flex_l	arm_add_l	arm_rot_l	elbow_flex_l	pro_sup_l	wrist_flex_l	wrist_dev_l
      1.30000000	     -1.86999796	      2.85261102	      2.83648422	      0.25736114	      0.95246164	      1.05233303	     27.77832627	    -12.99121224	    -19.66185274	    -28.73699128	     -0.50155511	      0.26450945	     -8.16231440	     14.18433706	     -3.69172196	     -4.98465389	     12.76614707	    -10.63489332	     -0.18561390	      7.19740952	      3.13509121	     -8.43902496	     -2.91481145	     -1.00492088	     -1.78617089	      3.89197281	    -11.40037318	    -20.20307689	     20.86839671	     89.95437384	      0.00000000	      0.00000000	     13.28683392	     15.17991033	      0.19257548	     30.60772512	     89.95437384	      0.00000000	      0.00000000
      1.31000000	     -2.16545929	      3.06064153	      2.90790998	      0.26467293	      0.95105436	      1.05282621	     28.25664174	    -13.06847471	    -19.96266463	    -26.36069330	     -0.46008089	      0.13772073	     -7.16690574	     14.08922483	     -3.87267114	     -5.15588291	     12.83286053	    -10.66641353	     -0.18616404	      7.33199007	      2.92193935	     -8.56501725	     -2.71143816	     -1.20399678	     -2.06267856	      3.66779106	    -11.35331098	    -20.25618277	     20.70868487	     89.95437384	      0.00000000	      0.00000000	     13.60003765	     15.33116975	      0.39848124	     30.74112612	     89.95437384	      0.00000000	      0.00000000
      1.32000000	     -1.96983911	      2.64060932	      3.18166759	      0.27257869	      0.95062121	      1.05351906	     27.83113354	    -12.64718313	    -21.40945415	    -23.82436679	     -0.41581364	      0.01456889	     -5.05142341	     13.54377473	     -4.54443270	     -4.47166368	     13.14612381	    -10.78064312	     -0.18815772	      7.57756597	      2.25888375	     -9.18548848	     -3.01817545	     -0.68953399	     -2.48005604	      3.60959252	    -11.31648514	    -20.84800051	     20.27663863	     89.95437384	      0.00000000	      0.00000000	     14.01649538	     15.14658921	      1.40499701	     30.58796738	     89.95437384	      0.00000000	      0.00000000
      1.33000000	     -2.33054515	      2.79904049	      3.28168617	      0.28036086	      0.94905903	      1.05422563	     28.41828346	    -12.70951047	    -21.85709291	    -21.96465521	     -0.38335555	      0.08665099	     -4.24843108	     13.46269860	     -4.74567174	     -4.57083337	     13.20648660	    -10.68187222	     -0.18643384	      7.75659870	      2.09053647	     -9.30938689	     -2.65881946	     -0.85503995	     -2.70856760	      3.32938754	    -11.29435436	    -20.85721336	     19.97469679	     89.95437384	      0.00000000	      0.00000000	     14.20073402	     15.25147217	      1.49010310	     30.60358747	     89.95437384	      0.00000000	      0.00000000
      1.34000000	     -2.18778849	      2.33234389	      3.67122074	      0.28843077	      0.94846931	      1.05492010	     27.94749140	    -12.36080571	    -23.61983447	    -19.70949119	     -0.34399552	      0.11206834	     -0.38987872	     11.57230188	     -5.28312369	     -3.74652565	     13.61949918	    -10.98594681	     -0.19174094	      7.64495246	      0.70121967	    -10.60440556	     -2.86902559	     -0.27087038	     -3.28647336	      3.26947200	    -11.29413974	    -21.22317025	     19.54977865	     89.95437384	      0.00000000	      0.00000000	     14.44378269	     15.12098897	      2.38201543	     30.50482097	     89.95437384	      0.00000000	      0.00000000
      1.35000000	     -2.33547210	      2.16105277	      3.97690944	      0.29627992	      0.94725668	      1.05580442	     27.99976638	    -12.12372734	    -24.40713946	    -17.84397344	     -0.31143609	      0.24253437	      1.53335488	     10.48568423	     -5.52007891	     -3.34404215	     13.77659883	    -11.23602506	     -0.19610563	      7.76540152	      0.22257948	    -11.38071492	     -2.78611021	     -0.06047391	     -3.70887083	      3.09003936	    -11.24062435	    -21.57186688	     19.23067951	     89.95437384	      0.00000000	      0.00000000	     14.66583283	     15.01137947	      3.08451054	     30.36479328	     89.95437384	      0.00000000	      0.00000000
      1.36000000	     -2.65894989	      2.21526715	      4.14851968	      0.30395770	      0.94574952	      1.05691835	     28.36829434	    -11.98830114	    -24.38300702	    -16.27939203	     -0.28412899	      0.47283643	      2.63082607	     10.25879237	     -5.65115584	     -3.26301564	     13.69155325	    -11.30592017	     -0.19732553	      7.81224059	      0.05868827	    -11.53104250	     -2.51267571	     -0.12399426	     -3.99437952	      2.89903166	    -11.20500850	    -21.74418062	     18.89035658	     89.95437384	      0.00000000	      0.00000000	     14.78055264	     15.07851661	      3.25745858	     30.29731409	     89.95437384	      0.00000000	      0.00000000
      1.37000000	     -2.47486000	      1.88067595	      4.60251884	      0.31260863	      0.94510116	      1.05778271	     27.90304123	    -11.73816415	    -25.72431585	    -14.89175877	     -0.25991022	      0.62263869	      5.23992271	      8.78471173	     -6.27758982	     -2.54084898	     14.08411622	    -11.56391419	     -0.20182838	      7.72870445	     -1.07551808	    -12.52779821	     -2.72337054	      0.30210092	     -4.54558789	      2.76668410	    -11.14648999	    -22.52204663	     18.50223131	     89.95437384	      0.00000000	      0.00000000	     14.89459256	     14.89737641	      4.05311914	     30.10150519	     89.95437384	      0.00000000	      0.00000000
      1.38000000	     -2.69041706	      2.02253779	      4.82203847	      0.32088838	      0.94361645	      1.05880653	     28.21653223	    -11.81178053	    -25.76586476	    -14.15161944	     -0.24699235	      0.88633739	      5.47207196	      8.66082149	     -6.59347975	     -2.53235646	     14.17074972	    -11.59191877	     -0.20231715	      7.88525647	     -1.12352790	    -12.56984608	     -2.49847881	      0.15958375	     -4.80331536	      2.43016054	    -11.13307549	    -22.58015129	     18.25169279	     89.95437384	      0.00000000	      0.00000000	     14.92073970	     14.90975419	      4.10626996	     30.04777927	     89.95437384	      0.00000000	      0.00000000
      1.39000000	     -2.40869253	      1.60903213	      5.34266115	      0.32961528	      0.94315342	      1.05998720	     27.45347977	    -11.29299888	    -26.05120935	    -12.90528535	     -0.22523972	      0.94903043	      6.82618096	      7.71230656	     -7.26603354	     -1.68791651	     14.09838336	    -11.93018572	     -0.20822102	      7.79170367	     -1.95454564	    -13.19216577	     -2.80899308	      0.67071691	     -5.39337901	      2.34208241	    -11.04769803	    -23.51571516	     17.81114281	     89.95437384	      0.00000000	      0.00000000	     14.96755601	     14.70909092	      4.84122117	     29.82750209	     89.95437384	      0.00000000	      0.00000000
      1.40000000	     -2.54670254	      1.68750511	      5.55869634	      0.33800155	      0.94178523	      1.06156583	     27.81149445	    -11.36220682	    -25.62534717	    -13.14682567	     -0.22945539	      0.89354287	      6.66595662	      7.56611045	     -7.48585560	     -1.50824217	     13.98896490	    -12.34150008	     -0.21539981	      7.68192047	     -1.89615534	    -12.98803293	     -2.70659068	      0.55330484	     -5.57011032	      1.82407279	    -11.02012535	    -23.45871844	     17.88903549	     89.95437384	      0.00000000	      0.00000000	     14.87548892	     14.73911176	      4.86607038	     30.00398365	     89.95437384	      0.00000000	      0.00000000
      1.41000000	     -2.14777938	      1.31362758	      6.15945197	      0.34776740	      0.94138115	      1.06272553	     26.83721886	    -10.88089338	    -25.59659209	    -12.46160834	     -0.21749610	     -0.60762012	      6.41784706	     -2.75683248	     -8.42789544	     -0.58487167	     14.51634160	    -12.38695856	     -0.21619321	      6.92268897	     -3.50384029	    -16.74705308	     -2.98438151	      1.04165518	     -6.19246012	      1.72950686	    -10.94712110	    -24.48206856	     17.25456156	     89.95437384	      0.00000000	      0.00000000	     14.84136759	     14.56145295	      5.15584691	     29.45876458	     89.95437384	      0.00000000	      0.00000000
      1.42000000	     -2.21380276	      1.34289517	      6.51953994	      0.35690041	      0.94015587	      1.06410244	     26.87819814	    -10.93712827	    -25.04617654	    -12.99484711	     -0.22680287	     -0.68370591	      6.18642127	     -2.72001767	     -8.78916773	     -0.31707469	     14.34256645	    -12.70109273	     -0.22167589	      6.97464442	     -3.47073002	    -16.50369389	     -2.84035615	      1.00985089	     -6.58194290	      1.28117932	    -10.92562744	    -24.47748323	     17.15096236	     89.95437384	      0.00000000	      0.00000000	     14.57579465	     14.54909184	      5.19371989	     29.44717020	     89.95437384	      0.00000000	      0.00000000
      1.43000000	     -2.10873293	      1.27520966	      6.90298835	      0.36637143	      0.93919929	      1.06569673	     26.69668516	    -10.88054122	    -24.57532005	    -13.81564871	     -0.24112856	     -0.57539334	      5.71374139	     -2.72457271	     -9.36695011	      0.11053249	     14.03750919	    -12.94463823	     -0.22592656	      7.08068929	     -3.56490263	    -16.31231334	     -2.85183876	      1.09809468	     -7.00072169	      0.98845979	    -10.90105995	    -24.67534309	     16.85241106	     89.95437384	      0.00000000	      0.00000000	     14.32527385	     14.48459386	      5.33997219	     29.25566171	     89.95437384	      0.00000000	      0.00000000
      1.44000000	     -1.56343035	      1.01725249	      7.31234706	      0.37651996	      0.93901049	      1.06762322	     25.78187691	    -10.44304831	    -24.23938127	    -14.40745454	     -0.25145752	     -0.42302512	      4.61761792	     -2.64699076	    -10.47604076	      0.87456441	     13.97535123	    -13.08371755	     -0.22835395	      6.77728289	     -4.17853483	    -16.23178121	     -3.32179653	      1.43338343	     -7.36939816	      0.76270518	    -10.79299278	    -25.65067687	     16.44282921	     89.95437384	      0.00000000	      0.00000000	     14.08789723	     14.26309572	      5.91286458	     29.15933213	     89.95437384	      0.00000000	      0.00000000
      1.45000000	     -1.58459762	      1.02390526	      7.65132629	      0.38643704	      0.93777587	      1.06954303	     25.59648303	    -10.37509440	    -23.61248421	    -15.31538319	     -0.26730386	     -0.45702133	      4.24605203	     -2.59924484	    -10.85119385	      1.25153009	     13.82532213	    -13.50375341	     -0.23568496	      6.73887713	     -4.11190788	    -15.95094240	     -3.11874743	      1.39882932	     -7.69254371	      0.23625380	    -10.75434770	    -25.61216980	     16.39059960	     89.95437384	      0.00000000	      0.00000000	     13.59848298	     14.24508116	      5.88064965	     29.12520434	     89.95437384	      0.00000000	      0.00000000
      1.46000000	     -1.22422477	      0.89882921	      7.91505980	      0.39707060	      0.93711682	      1.07181967	     24.94882127	    -10.07061104	    -23.36806789	    -16.41316385	     -0.28646375	      0.01020671	      3.29627451	     -2.58436673	    -11.78091910	      1.82743933	     13.62697112	    -13.73477980	     -0.23971713	      6.62205065	     -4.35618587	    -15.80981923	     -3.28768323	      1.53809297	     -7.90320375	     -0.09641146	    -10.74071109	    -25.79804928	     15.96116545	     89.95437384	      0.00000000	      0.00000000	     13.16328609	     14.13985404	      5.93690056	     28.99861009	     89.95437384	      0.00000000	      0.00000000
